<svg aria-hidden="true" style="position: absolute; width: 0; height: 0; overflow: hidden;" version="1.1" xmlns="http://www.w3.org/2000/svg" xmlns:xlink="http://www.w3.org/1999/xlink">
<defs>
<symbol id="icon-Instagram" viewBox="0 0 32 32">
<path fill="#fff" style="fill: var(--color1, #fff)" d="M16 0c-8.837 0-16 7.163-16 16s7.163 16 16 16c8.837 0 16-7.163 16-16s-7.163-16-16-16zM12.482 7.518c0.91-0.041 1.201-0.052 3.516-0.052h0.003c2.316 0 2.606 0.010 3.515 0.052 0.909 0.042 1.529 0.185 2.073 0.396 0.562 0.218 1.036 0.509 1.511 0.984s0.766 0.95 0.985 1.512c0.21 0.543 0.354 1.163 0.396 2.071 0.041 0.91 0.052 1.201 0.052 3.519s-0.011 2.608-0.052 3.518c-0.043 0.908-0.187 1.528-0.396 2.071-0.219 0.561-0.51 1.037-0.985 1.512s-0.95 0.767-1.511 0.985c-0.543 0.211-1.164 0.355-2.072 0.396-0.91 0.041-1.2 0.052-3.518 0.052s-2.608-0.010-3.518-0.052c-0.908-0.042-1.528-0.186-2.071-0.396-0.561-0.218-1.037-0.51-1.511-0.985s-0.766-0.95-0.984-1.512c-0.211-0.543-0.355-1.163-0.396-2.071-0.041-0.91-0.052-1.2-0.052-3.518s0.011-2.608 0.051-3.519c0.041-0.908 0.185-1.528 0.396-2.071 0.219-0.561 0.51-1.037 0.985-1.511s0.95-0.766 1.512-0.984c0.543-0.211 1.163-0.355 2.071-0.396z"></path>
<path fill="#fff" style="fill: var(--color1, #fff)" d="M15.716 9.004c-0.173 0-0.332-0-0.481 0v-0.002c-1.59 0.002-1.896 0.012-2.683 0.048-0.832 0.038-1.284 0.177-1.585 0.294-0.398 0.155-0.682 0.34-0.981 0.639s-0.484 0.583-0.639 0.981c-0.117 0.301-0.256 0.752-0.294 1.584-0.041 0.9-0.049 1.168-0.049 3.447s0.008 2.549 0.049 3.449c0.038 0.832 0.177 1.284 0.294 1.584 0.155 0.398 0.34 0.682 0.639 0.981s0.583 0.484 0.981 0.638c0.301 0.117 0.753 0.256 1.585 0.294 0.9 0.041 1.17 0.050 3.448 0.050s2.549-0.009 3.448-0.050c0.832-0.038 1.284-0.177 1.584-0.294 0.398-0.155 0.682-0.34 0.981-0.638s0.484-0.582 0.639-0.98c0.117-0.3 0.256-0.752 0.294-1.584 0.041-0.9 0.050-1.17 0.050-3.447s-0.009-2.548-0.050-3.447c-0.038-0.832-0.177-1.284-0.294-1.584-0.155-0.398-0.34-0.683-0.639-0.981s-0.582-0.483-0.981-0.638c-0.301-0.117-0.752-0.256-1.584-0.294-0.9-0.041-1.17-0.049-3.448-0.049-0.099 0-0.193 0-0.285-0zM20.556 10.421c-0.565 0-1.024 0.458-1.024 1.024s0.459 1.024 1.024 1.024c0.565 0 1.024-0.459 1.024-1.024s-0.459-1.024-1.024-1.024v0zM11.618 16c0-2.42 1.962-4.382 4.382-4.382s4.382 1.962 4.382 4.382c0 2.42-1.961 4.381-4.382 4.381s-4.382-1.961-4.382-4.381z"></path>
<path fill="#fff" style="fill: var(--color1, #fff)" d="M16 13.147c1.563 0 2.843 1.28 2.843 2.853 0 1.563-1.28 2.843-2.843 2.843-1.573 0-2.853-1.28-2.853-2.843 0-1.573 1.28-2.853 2.853-2.853v0z"></path>
</symbol>
<symbol id="icon-Facebook" viewBox="0 0 32 32">
<path fill="#fff" style="fill: var(--color1, #fff)" d="M16 0c-8.837 0-16 7.163-16 16s7.163 16 16 16c8.837 0 16-7.163 16-16s-7.163-16-16-16zM17.668 16.703v8.705h-3.602v-8.705h-1.799v-3h1.799v-1.801c0-2.447 1.016-3.902 3.903-3.902h2.403v3h-1.502c-1.124 0-1.198 0.419-1.198 1.202l-0.004 1.501h2.721l-0.318 3h-2.403z"></path>
</symbol>
<symbol id="icon-black-men" viewBox="0 0 22 32">
<path fill="none" stroke="#fff" style="stroke: var(--color1, #fff)" stroke-linejoin="miter" stroke-linecap="butt" stroke-miterlimit="4" stroke-width="2.6182" d="M17.212 7.919c0 3.57-2.822 6.465-6.303 6.465s-6.303-2.894-6.303-6.465c0-3.57 2.822-6.465 6.303-6.465s6.303 2.894 6.303 6.465z"></path>
<path fill="none" stroke="#fff" style="stroke: var(--color1, #fff)" stroke-linejoin="miter" stroke-linecap="butt" stroke-miterlimit="4" stroke-width="2.6182" d="M1.455 22.465c0-4.463 3.527-8.081 7.879-8.081h3.152c4.351 0 7.879 3.618 7.879 8.081v6.465c0 0.892-0.705 1.616-1.576 1.616h-15.758c-0.87 0-1.576-0.724-1.576-1.616v-6.465z"></path>
</symbol>
<symbol id="icon-hearts" viewBox="0 0 35 32">
<path fill="none" stroke="#fff" style="stroke: var(--color1, #fff)" stroke-linejoin="miter" stroke-linecap="butt" stroke-miterlimit="4" stroke-width="2.6182" d="M17.454 29.091c-30.834-17.116-9.25-35.696 0-23.947 9.251-11.749 30.835 6.831 0 23.947z"></path>
</symbol>
<symbol id="icon-lock" viewBox="0 0 25 32">
<path fill="none" stroke="#fff" style="stroke: var(--color1, #fff)" stroke-linejoin="round" stroke-linecap="round" stroke-miterlimit="4" stroke-width="2.6182" d="M6.545 11.636h-3.636c-0.803 0-1.455 0.651-1.455 1.455v16c0 0.803 0.651 1.455 1.455 1.455h18.909c0.803 0 1.455-0.651 1.455-1.455v-16c0-0.803-0.651-1.455-1.455-1.455h-3.636M6.545 11.636v-4.364c0-3.213 2.605-5.818 5.818-5.818v0c3.213 0 5.818 2.605 5.818 5.818v4.364M6.545 11.636h11.636"></path>
</symbol>
</defs>
</svg>
